<svg xmlns="http://www.w3.org/2000/svg" viewBox="-2 -2 316 96">
  <style>
    path { fill: #000; }
    @media (prefers-color-scheme: dark) {
      path { fill: #fff; }
    }
  </style>
  <path d="M0,89.22V2.21h22.2v11.43-1.57c2.72-4.19,5.77-6.7,10.15-9.04,4.38-2.34,10.37-3.03,16.24-3.03,6.42,0,11.9,1.67,16.49,4.34,4.6,2.67,8.12,6.6,10.57,11.79,2.45,5.2,3.67,11.55,3.67,19.06v54.03h-22.2v-51.17c0-5.88-1.43-10.43-4.28-13.67-2.86-3.24-6.87-4.86-12.04-4.86-3.81,0-7.1.86-9.88,2.57s-4.92,4.07-6.45,7.06c-1.52,2.99-2.29,6.37-2.29,10.12v49.95H0Z"/>
  <path d="M132.13,90.93c-8.76,0-16.53-1.73-23.3-5.18-6.77-3.45-12.09-8.6-15.96-15.43-3.86-6.83-5.79-15-5.79-24.53s1.74-17.14,5.22-24c3.48-6.86,8.42-12.16,14.81-15.92,6.39-3.75,13.83-5.63,22.32-5.63s15.26,1.75,21.3,5.26,10.7,8.48,14,14.89c3.29,6.42,4.94,13.87,4.94,22.36,0,1.2-.07,2.5-.2,3.92-.14,1.42-.29,2.91-.45,4.49h-59.99c.87,4.68,2.49,8.57,4.86,11.67s5.37,5.4,9.02,6.9c3.64,1.5,7.78,2.24,12.41,2.24,4.3,0,8.31-.53,12.04-1.59,3.73-1.06,7.06-2.46,10-4.2,2.94-1.74,5.74-3.75,8.41-6.04,0,7.18.02,14.36.03,21.55-4.31,2.62-11.18,6.1-20.23,7.96-3.27.67-7.89,1.27-13.43,1.27ZM147.88,35.83c-.27-4.03-1.16-7.49-2.65-10.41-1.5-2.91-3.61-5.13-6.33-6.65-2.72-1.52-5.99-2.29-9.79-2.29-3.48,0-6.63.69-9.43,2.08-2.8,1.39-5.14,3.52-7.02,6.41-1.88,2.88-3.14,6.5-3.8,10.85h39.01Z"/>
  <path d="M207.62,90.93c-5.39,0-10.83-.76-16.32-2.29-5.5-1.52-10.47-3.84-14.94-6.94l-.08-21.22c4.9,3.92,9.85,6.88,14.85,8.9,5,2.01,10.15,3.02,15.43,3.02,4.08,0,7.21-.67,9.39-2,2.18-1.33,3.26-3.11,3.26-5.35,0-2.01-.5-3.63-1.51-4.86-1.01-1.22-2.63-2.29-4.86-3.18-2.23-.9-5.52-1.92-9.88-3.06-6.8-1.85-12.15-3.89-16.04-6.12-3.89-2.23-6.72-4.98-8.49-8.24-1.77-3.26-2.65-7.35-2.65-12.24,0-5.55,1.5-10.38,4.49-14.49,2.99-4.11,7.07-7.24,12.24-9.39,5.17-2.15,10.85-3.22,17.06-3.22,3.43,0,6.83.33,10.2.98,3.37.65,6.5,1.59,9.39,2.82,2.88,1.22,5.36,2.6,7.43,4.12l.08,20.73c-3.81-3.26-8.05-5.77-12.73-7.51-4.68-1.74-9.14-2.61-13.39-2.61-2.56,0-4.76.29-6.61.86-1.85.57-3.25,1.36-4.2,2.37-.95,1.01-1.43,2.16-1.43,3.47,0,1.9.41,3.41,1.22,4.53.82,1.12,2.27,2.1,4.37,2.94,2.09.84,5.24,1.81,9.43,2.9,7.45,1.9,13.23,3.95,17.34,6.12,4.11,2.18,7.07,4.88,8.9,8.12,1.82,3.24,2.73,7.41,2.73,12.53,0,5.66-1.37,10.61-4.12,14.85-2.75,4.24-6.72,7.55-11.92,9.92-5.2,2.37-11.41,3.55-18.65,3.55Z"/>
  <path d="M279.28,90.93c-5.39,0-10.83-.76-16.32-2.29-5.5-1.52-10.47-3.84-14.94-6.94l-.08-21.22c4.9,3.92,9.85,6.88,14.85,8.9,5,2.01,10.15,3.02,15.43,3.02,4.08,0,7.21-.67,9.39-2,2.18-1.33,3.26-3.11,3.26-5.35,0-2.01-.5-3.63-1.51-4.86-1.01-1.22-2.63-2.29-4.86-3.18-2.23-.9-5.52-1.92-9.88-3.06-6.8-1.85-12.15-3.89-16.04-6.12-3.89-2.23-6.72-4.98-8.49-8.24-1.77-3.26-2.65-7.35-2.65-12.24,0-5.55,1.5-10.38,4.49-14.49,2.99-4.11,7.07-7.24,12.24-9.39,5.17-2.15,10.85-3.22,17.06-3.22,3.43,0,6.83.33,10.2.98,3.37.65,6.5,1.59,9.39,2.82,2.88,1.22,5.36,2.6,7.43,4.12l.08,20.73c-3.81-3.26-8.05-5.77-12.73-7.51-4.68-1.74-9.14-2.61-13.39-2.61-2.56,0-4.76.29-6.61.86-1.85.57-3.25,1.36-4.2,2.37-.95,1.01-1.43,2.16-1.43,3.47,0,1.9.41,3.41,1.22,4.53.82,1.12,2.27,2.1,4.37,2.94,2.09.84,5.24,1.81,9.43,2.9,7.45,1.9,13.23,3.95,17.34,6.12,4.11,2.18,7.07,4.88,8.9,8.12,1.82,3.24,2.73,7.41,2.73,12.53,0,5.66-1.37,10.61-4.12,14.85-2.75,4.24-6.72,7.55-11.92,9.92-5.2,2.37-11.41,3.55-18.65,3.55Z"/>
</svg>
